<svg width="71" height="71" viewBox="0 0 71 71" fill="none" xmlns="http://www.w3.org/2000/svg">
<circle cx="35.5" cy="35.5" r="35.5" fill="white"/>
<circle cx="35.5" cy="35.5" r="33.5" fill="#00B5E2"/>
<path d="M16 14H28.6012C31.302 14 33.3124 14.6784 34.7007 15.851C35.4397 16.4737 36.0297 17.2646 36.4244 18.1618C36.8192 19.059 37.0082 20.0384 36.9767 21.0235C36.9767 23.7059 35.6263 25.4039 33.3238 26.3098V26.4235C34.7031 26.8312 35.9116 27.7027 36.7581 28.9002C37.6045 30.0977 38.0405 31.5528 37.997 33.0353C37.997 35.7529 37.0487 37.7177 35.3418 39.0745C33.8245 40.3216 31.6547 41 28.916 41H16.019L16 14ZM27.6529 24.6863C29.5153 24.6863 30.7937 23.7451 30.7937 21.9686C30.7937 20.2706 29.5912 19.2863 27.6908 19.2863H22.3802V24.6863H27.6529ZM28.1649 35.6392C30.2854 35.6392 31.5978 34.3922 31.5978 32.4667C31.5978 30.3137 30.0805 29.2196 28.0929 29.2196H22.403V35.6392H28.1649Z" fill="#1E1E1E"/>
<path d="M41 14H47V18.9843H41V14ZM41 21.6667H47V36.2941L41 41V21.6667Z" fill="#1E1E1E"/>
<path d="M11.1958 37.1794C11.3233 36.5818 11.7139 36.3175 12.3635 36.6509C13.2085 37.0575 13.7944 36.9802 13.5991 37.9072C13.077 40.5581 13.2005 43.1927 13.2723 45.8598C13.3077 45.8967 13.3538 45.9209 13.4038 45.9289C13.9219 45.7297 14.8346 42.2698 17.1702 38.3707C17.6245 37.5575 17.8876 37.2445 18.2782 37.2445C18.68 37.3034 19.0726 37.4154 19.446 37.5779C21.4388 38.391 21.5264 39.6311 21.8373 44.9328C22.746 44.5263 23.1366 41.4891 27.0186 36.5818C28.5132 34.7278 29.4897 34 30.6056 34C31.2553 34 31.9687 34.3293 32.8137 34.7928C33.9814 35.3905 33.7224 37.0453 33.5271 38.5049C33.1285 41.9526 31.7734 51.6942 33.8539 54.5443C33.9481 54.654 34 54.7949 34 54.9407C34 55.0865 33.9481 55.2274 33.8539 55.3371C33.7812 55.554 33.6413 55.741 33.4553 55.8697C32.7778 56.5934 32.18 57 31.7256 57C31.0759 57 30.6216 56.3373 30.231 55.1419C28.7364 50.4379 28.9317 43.148 29.7089 38.3748C28.5411 38.8423 24.7747 45.0711 22.8895 51.1006C22.3036 53.0887 20.809 53.6864 20.6815 53.54C19.9641 52.2146 19.446 53.0765 18.9278 51.2876C18.601 50.1614 17.5608 43.5993 17.5608 43.5993C14.8984 49.4987 14.8346 52.9505 14.444 54.7354C14.185 55.9266 12.5588 56.9227 11.5864 56.9227C11.1878 56.9227 10.8689 56.7886 10.7892 56.4593C9.89646 53.1497 9.4421 43.8066 11.1958 37.1794Z" fill="white"/>
<path d="M35.3157 47.1819C36.5626 42.7464 41.152 36 45.2829 36C46.0391 36.0192 46.7707 36.2534 47.3785 36.6709C49.7918 38.2513 50.1337 39.2204 49.1483 41.6506C48.4673 43.2623 47.4426 44.7303 46.1356 45.9668C44.2974 47.7261 42.5156 48.0317 40.1022 47.6664C39.2495 47.6068 39.2495 47.5472 39.1851 48.274C39.009 49.3718 39.0983 50.4921 39.4466 51.554C40.0378 53.1344 40.251 53.317 42.0691 53.194C48.2996 52.8921 58.0696 43.0483 58.9867 42.3849C59.3012 42.1462 59.6944 42.0147 60.1009 42.0121C60.6922 42.0121 61.1507 42.3178 60.9536 43.0446C60.3623 44.8672 54.3289 49.9103 51.2479 52.0982C47.9054 54.4091 45.2829 55.6839 41.0877 55.9858C36.3012 56.2951 34.1372 51.5056 35.3157 47.1819ZM41.4778 45.7842C43.7745 45.7842 45.6771 43.2906 46.4614 41.5909C46.8636 40.6815 46.9199 39.3546 45.8741 38.7955C45.3472 38.5532 44.953 38.9781 44.5589 39.2204C43.1189 40.2528 42.0047 41.8295 41.0877 43.1713C40.6854 43.7789 40.6854 44.4461 40.5607 45.117C40.4964 45.6015 40.8906 45.7842 41.4778 45.7842Z" fill="white"/>
<path d="M51 29H56V31H51V29Z" fill="#1E1E1E"/>
</svg>
