<svg width="71" height="71" viewBox="0 0 71 71" fill="none" xmlns="http://www.w3.org/2000/svg">
<circle cx="35.5" cy="35.5" r="35.5" fill="#F47422"/>
<path fill-rule="evenodd" clip-rule="evenodd" d="M19.4271 52.6286L19.3261 52.5909C19.1681 52.5739 19.0611 52.5839 18.9084 52.5783L16.8615 52.3896C16.4498 52.3199 16.4215 52.3683 16.0918 52.2126L16.0504 52.1796C15.9438 52.1002 15.8874 52.0819 15.7804 52.0149C15.6591 51.9392 15.5964 51.9099 15.473 51.8485L15.4264 51.8125C15.2497 51.6868 15.14 51.6285 14.95 51.5368L14.9066 51.5005C14.7916 51.4188 14.72 51.3948 14.6043 51.3191C14.4893 51.2435 14.4459 51.2115 14.3176 51.1378C14.0812 51.0021 13.9419 50.8708 13.7002 50.7567L13.6588 50.7217C13.5748 50.6437 13.6195 50.6901 13.5362 50.6527L13.5028 50.6211C13.2828 50.4544 13.0638 50.3254 12.8371 50.1743C12.5944 50.0127 12.3837 49.858 12.137 49.717L12.099 49.6846L10.4205 48.4691L10.3831 48.4358C10.2431 48.3095 10.1041 48.1905 9.95076 48.1051L9.91509 48.0728C9.78774 47.9561 9.74007 47.9321 9.61772 47.8307L9.04466 47.3637C8.90931 47.249 8.92131 47.211 8.75796 47.117L8.66728 47.0337C8.57627 46.9496 8.53127 46.8903 8.44559 46.8186C8.33991 46.7296 8.32091 46.742 8.2109 46.6376C8.05521 46.4893 7.95254 46.3376 7.76885 46.2332L7.73151 46.1936L6.72973 45.2071C6.61939 45.0954 6.63072 45.0854 6.54505 44.9758C6.36836 44.7501 6.14734 44.6127 5.96332 44.3617C5.88297 44.2513 5.85597 44.2417 5.76929 44.14L5.40425 43.6733C5.13689 43.3609 4.95154 43.0792 4.69351 42.7498L4.61183 42.6545L4.54182 42.5418L4.50782 42.5025C4.47315 42.4315 4.51449 42.4658 4.43715 42.3858L4.40381 42.3491C4.3522 42.2536 4.29429 42.1616 4.23046 42.0738L4.19579 42.0348C4.16478 41.9708 4.19645 41.9941 4.12978 41.9178L4.09177 41.8738C4.0411 41.7694 4.0451 41.7607 3.97109 41.6577L3.93576 41.6154C3.88375 41.5067 3.89175 41.504 3.81408 41.3977L3.77974 41.351C3.72073 41.2327 3.6904 41.1513 3.61139 41.034L3.57172 40.984L3.55638 40.9296L3.51971 40.8843L3.14134 40.0979L3.104 40.0449C3.07333 39.9185 3.088 39.9692 3.03299 39.8382L2.99965 39.8032C2.95298 39.6868 2.93165 39.6075 2.87531 39.4738L2.84397 39.4288C2.79263 39.1945 2.74562 39.1638 2.67095 38.9711C2.63595 38.8808 2.63161 38.8234 2.60328 38.7274C2.56127 38.5851 2.54827 38.5874 2.5166 38.434L2.47993 38.386C2.43892 38.2037 2.39092 38.074 2.35992 37.8623L2.32391 37.8123C2.31824 37.5549 2.2389 37.4469 2.20657 37.1862L2.16789 36.9929L2.15056 36.8222L2.11589 36.6755C2.11589 36.0854 1.9592 35.8864 2.01021 34.6366C2.01921 34.4126 2.05588 34.4249 2.06388 34.1706C2.07888 33.6962 2.26991 32.8024 2.27191 32.7121L2.30691 32.6627L2.32358 32.5034L2.35792 32.4547C2.43992 31.9413 2.64328 31.5979 2.73996 31.1452L2.77663 31.1029C2.83497 30.9469 2.86731 30.8185 2.93065 30.6695C3.00532 30.4958 3.06066 30.4602 3.104 30.2661L3.13767 30.2188L3.25968 29.9428L3.29202 29.9071L3.51971 29.427L3.55405 29.387L3.57172 29.3257L3.60539 29.283C3.69973 29.1553 3.71873 29.0907 3.77974 28.956L3.81141 28.9193L3.83175 28.8626L3.86942 28.815C3.96443 28.678 4.02477 28.5843 4.09177 28.4373L4.12511 28.3993C4.26279 28.2139 4.35814 28.0526 4.48682 27.8585C4.62883 27.6452 4.75118 27.5018 4.87153 27.2955L4.90687 27.2555L5.96365 25.9467L6.04699 25.8513C6.77174 25.0696 7.86286 23.9434 8.73262 23.2133C8.83863 23.1243 8.85497 23.1357 8.96632 23.031L9.4377 22.6183C9.54438 22.5343 9.59805 22.4976 9.70706 22.4063L9.7504 22.3679L10.7255 21.6182C10.7975 21.5698 10.8569 21.5375 10.9122 21.4932C10.9862 21.4348 10.9955 21.4101 11.0789 21.3481L12.4627 20.373L12.5014 20.3397C12.6907 20.253 12.6367 20.2707 12.7957 20.153C12.9074 20.0707 12.9758 20.0387 13.0868 19.9603L13.1284 19.924C13.1918 19.892 13.1634 19.9287 13.2428 19.8556L13.2861 19.82L13.3988 19.7516L13.4401 19.716C13.6262 19.6283 13.7945 19.5126 13.9709 19.3889L14.0129 19.3523C14.1296 19.2822 14.2689 19.2122 14.3866 19.1266L14.4256 19.0922C14.5616 19.0296 14.7793 18.9089 14.9066 18.8122L14.945 18.7802C15.0083 18.7499 14.9873 18.7795 15.0627 18.7148L15.1083 18.6762C15.2127 18.6245 15.2803 18.5962 15.385 18.5308C15.4984 18.4598 15.577 18.4268 15.6864 18.3458L15.7227 18.3125C15.8364 18.2485 15.8107 18.2495 15.9464 18.1908L15.9888 18.1561C16.1198 18.0938 16.1768 18.0361 16.3005 17.9904C16.4078 17.9504 16.5938 17.9621 16.7668 17.9368C16.9792 17.9051 17.4193 17.8518 17.6623 17.8441C17.9056 17.8364 17.8876 17.8057 18.0783 17.7921L23.3296 17.414L23.5366 17.3764L26.0855 17.2547L26.3382 17.2204L28.5808 17.116C28.8008 17.1173 29.1512 17.1363 29.3572 17.1127L32.4289 17.0123C33.339 17.0123 39.7324 16.966 40.2915 17.053C40.7385 17.1223 41.3772 17.0147 41.836 17.0683C42.2653 17.1187 42.8704 17.114 43.2998 17.1643L46.3521 17.2837C46.8135 17.3557 47.3492 17.3367 47.8713 17.376C48.4317 17.4184 48.6234 17.4674 49.3291 17.4784C49.8002 17.4854 50.2979 17.5844 50.8413 17.5844L50.991 17.6224C51.8464 17.7104 53.8496 17.7991 54.5997 17.9271C54.8277 17.9661 54.9427 17.9371 55.1318 18.0188C55.2698 18.0784 55.2214 18.0698 55.3271 18.1351C55.4258 18.1961 55.4821 18.2155 55.5725 18.2601L55.6185 18.2988C55.7558 18.3921 55.9552 18.5055 56.0972 18.5722L56.1382 18.6068C56.2692 18.7018 56.4803 18.8199 56.6179 18.8842L56.6583 18.9179C56.8536 19.0619 57.039 19.1589 57.24 19.2906C57.3494 19.3623 57.423 19.3939 57.5327 19.4656C57.6717 19.5573 57.7107 19.5906 57.8624 19.664L57.9061 19.7013C58.0611 19.8096 58.1831 19.889 58.3365 19.976L58.3741 20.0117C58.4795 20.087 58.5478 20.127 58.6498 20.184L58.6862 20.2183C58.8348 20.327 58.9682 20.4117 59.1152 20.496L59.1542 20.5347L59.2619 20.6001L59.3099 20.6401C59.4126 20.7241 59.4506 20.7451 59.5599 20.8181C59.6849 20.9014 59.7273 20.9498 59.847 21.0158L59.882 21.0484L63.224 23.7197L63.2617 23.7564C63.271 23.7664 63.2853 23.7951 63.29 23.7857L64.1591 24.6035L64.2495 24.6948L65.0515 25.5396L65.2376 25.7363L66.2393 26.9431L66.2773 26.9848C66.355 27.1158 66.3924 27.1851 66.5067 27.3071L66.5894 27.3998C66.6637 27.5268 66.7097 27.6035 66.8121 27.7232L66.8491 27.7655L66.9167 27.8789L66.9531 27.9182C67.0434 28.1139 67.0518 28.0876 67.1621 28.2422L67.7495 29.231L67.7852 29.2757L68.1702 30.0628L68.2012 30.1004L68.2699 30.2708L68.3049 30.3191C68.3472 30.4108 68.3706 30.5012 68.4016 30.5905C68.4506 30.7305 68.4732 30.7485 68.5296 30.8782C68.6219 31.0916 68.6546 31.2449 68.7353 31.4669L68.773 31.5136C68.8206 31.728 68.8943 31.9026 68.9446 32.1427L68.981 32.1893L69.176 33.0914C69.2107 33.2941 69.219 33.3828 69.2543 33.5852C69.2813 33.7399 69.284 33.9079 69.3087 34.1186L69.345 34.3286V35.9441L69.308 36.1985C69.284 36.4111 69.282 36.5752 69.2543 36.7318C69.2197 36.9305 69.189 37.0375 69.189 37.2349L69.1527 37.2902C69.1207 37.5643 69.0517 37.689 69.033 37.9183L68.9986 37.966C68.931 38.266 68.8356 38.528 68.773 38.7987L68.7333 38.8501C68.6649 39.0481 68.6113 39.2505 68.5299 39.4388C68.4509 39.6228 68.3499 39.7999 68.3049 39.9955L68.2662 40.0459L68.2532 40.1046L68.2199 40.1499L68.2012 40.2119L68.1652 40.2539L67.9412 40.7366L67.9089 40.774L67.8372 40.9366L67.8005 40.982C67.7198 41.0963 67.7145 41.1363 67.6468 41.2597C67.5758 41.3887 67.5395 41.4257 67.4731 41.5537C67.2848 41.9188 66.9711 42.3325 66.7351 42.6875C66.6074 42.8795 66.4767 43.0415 66.3377 43.2259C65.8226 43.9103 65.5176 44.1897 65.0909 44.7351L61.7145 47.8577C61.5505 48.0121 61.3795 48.1368 61.1961 48.2755C60.9981 48.4248 60.8511 48.5315 60.6621 48.6908L60.62 48.7292C60.5474 48.7659 60.5914 48.7152 60.506 48.8025L60.4134 48.8849C60.245 48.9835 60.1723 49.0549 60.0076 49.1666C59.843 49.2779 59.7266 49.3549 59.5699 49.4813L59.4746 49.5609L58.5091 50.2157C58.4321 50.267 58.3855 50.283 58.3111 50.3297L57.5254 50.8437C57.3587 50.9394 57.2793 51.0058 57.1093 51.1038L56.2942 51.6072L56.2539 51.6408C56.1399 51.6942 56.1439 51.6818 56.0345 51.7638L55.9965 51.7965C55.8825 51.8485 55.8835 51.8389 55.7745 51.9179L55.7338 51.9529C55.5918 52.0192 55.3915 52.1326 55.2544 52.2262L55.2081 52.2646C54.6794 52.5036 51.108 52.6443 50.3189 52.7366C47.1524 52.9578 43.9827 53.1299 40.8108 53.2527C39.8577 53.2527 39.0673 53.3047 38.0962 53.3047C33.221 53.275 28.8122 53.1277 24.0077 52.9386C23.7243 52.9276 23.5949 52.935 23.3702 52.9L19.4271 52.6286ZM32.6713 17.5967C32.7026 17.6001 32.832 17.5717 32.948 17.5717L37.1904 17.6604C39.9761 17.6564 42.5584 17.7707 45.3223 17.9854C47.6763 18.1681 50.3112 18.1154 52.5568 18.6502C51.9824 18.6612 50.6123 18.5942 50.0189 18.6848C47.2469 18.4638 31.9545 17.1387 21.8461 18.6855L20.871 18.7955L18.6567 18.4071C19.6488 18.4338 22.7908 18.0211 23.7926 17.9361C24.3187 17.8918 24.9234 17.8794 25.4845 17.8144L28.9949 17.6571C30.249 17.6371 31.4118 17.5987 32.6713 17.5967ZM68.838 34.3936L67.1408 34.3726C67.0684 32.0167 65.9093 30.0888 64.7108 28.2549L61.6318 28.1469C60.429 25.3309 54.0473 19.8873 51.8784 19.0436C52.7055 18.9725 53.6559 18.7279 54.4707 18.5542C55.6428 19.2342 56.9553 19.989 58.0424 20.7344L60.092 22.1572L60.9431 22.813L61.3985 23.155L61.5445 22.9923C60.6784 22.1122 55.6025 18.5082 54.6304 18.4091C53.5066 18.2948 52.2791 18.1651 51.1467 18.1071C49.9719 18.0471 48.7454 17.8911 47.5603 17.8508C46.3821 17.8107 45.1303 17.7244 43.9612 17.6544C40.2034 17.4294 36.3877 17.3264 32.6123 17.3154C31.8322 17.3454 28.8829 17.451 28.4115 17.477C24.6474 17.6857 20.746 17.9904 17.0035 18.3825C16.4735 18.4378 16.5235 18.4195 16.1591 18.6298C13.3311 20.2644 10.7902 22.0852 8.40392 24.1845C7.69884 24.8045 7.11278 25.4936 6.47504 26.1547L6.48504 26.165L6.67773 26.3037C6.89042 26.067 6.60105 26.3877 6.98043 25.9857L8.95998 24.0641C9.15749 23.8792 9.36165 23.7015 9.57205 23.5314L12.1057 21.5858C12.9344 20.9541 13.8965 20.4624 14.747 19.8556L15.47 19.3959L16.6778 18.7025C16.8922 18.5795 19.1604 18.9092 19.4321 19.0382C17.7623 19.961 13.6018 23.3794 12.6641 24.6488C11.3346 26.084 11.0015 26.0743 9.91375 27.7202C9.84241 27.8782 9.76807 28.0362 9.72973 28.1522L6.7094 28.2646C5.43092 30.2511 4.8942 32.1683 4.15745 34.3719C4.05977 34.3843 2.59961 34.3442 2.57061 34.4403C2.56794 34.4503 2.55394 34.4473 2.5456 34.4516C2.51855 34.7519 2.5122 35.0538 2.5266 35.355C2.82063 35.5124 4.02043 35.3847 4.43515 35.4364L5.2099 38.6491C5.62828 39.6995 6.13267 40.6796 6.68706 41.5414L9.7074 41.6537C9.74607 41.7697 9.82008 41.9278 9.89142 42.0858C10.9792 43.7316 11.3349 44.2207 12.6641 45.6562C13.6018 46.9253 17.7623 50.3434 19.4321 51.2661C19.1604 51.3951 16.8922 51.7248 16.6778 51.6018L15.47 50.9084L14.747 50.449C13.8965 49.842 12.9344 49.3502 12.1053 48.7188L9.57172 46.7733C9.36143 46.6032 9.15738 46.4255 8.95998 46.2406L6.98043 44.3187C6.60105 43.917 6.89042 44.2373 6.67773 44.0007L6.48537 44.1393L6.47537 44.1497C7.11278 44.8107 7.69884 45.4998 8.40392 46.1199C10.7899 48.2195 13.3311 50.0403 16.1591 51.6745C16.5235 51.8849 16.4738 51.8665 17.0035 51.9222C18.2527 52.0532 19.4818 52.3242 20.7553 52.4353C23.2972 52.6569 25.9035 52.6886 28.4115 52.8276C28.8829 52.8536 31.8475 52.9686 32.6059 52.9173C36.3814 52.9063 40.2408 53 43.9989 52.775C47.4779 52.5666 51.1513 52.2492 54.6304 51.8955C55.6025 51.7965 60.6784 48.1925 61.5445 47.312L61.3985 47.1497L60.9431 47.4917L60.092 48.1474L58.0424 49.5703C56.9553 50.3154 55.6428 51.0701 54.4707 51.7502C53.6559 51.5768 52.7055 51.3321 51.8784 51.2611C54.0473 50.417 60.4067 44.475 61.6095 41.6591L64.6888 41.551C65.887 39.7168 66.7967 37.7923 66.8694 35.4364L68.85 35.4117C68.872 35.085 68.867 34.744 68.838 34.3936ZM41.3082 52.6406C38.8976 52.6673 34.8765 52.6473 32.6713 52.7076C31.4121 52.7056 30.249 52.6673 28.9949 52.6476L25.4845 52.4903C24.9234 52.4253 24.3187 52.4129 23.7926 52.3683C23.2063 52.3174 22.6192 52.2771 22.0314 52.2472C21.2633 52.2106 19.1191 52.0572 18.7457 51.9419C18.6501 51.9122 18.7077 51.9245 18.6567 51.8972L20.871 51.5092L21.8461 51.6188C31.9545 53.1657 47.2469 51.8405 50.0189 51.6198C50.6123 51.7102 52.4825 51.8435 53.0569 51.8545C51.9254 52.1239 50.4543 52.0972 49.2748 52.1972C47.9583 52.3082 46.6475 52.3539 45.3223 52.4569C44.0002 52.5593 42.6147 52.5449 41.3082 52.6406Z" fill="white"/>
<path d="M18.3888 41.7503C18.3869 41.7478 18.385 41.7454 18.3831 41.7429L18.3888 41.7503ZM18.3511 41.7003C18.3581 41.7101 18.3652 41.7199 18.3724 41.7296L18.3431 41.6919L18.3511 41.7003ZM12.0938 36.7314L15.1494 36.7214C15.7175 36.7194 16.2609 36.4797 16.3656 35.8749C16.4516 35.3772 16.4389 34.2598 16.1399 33.9424C15.9102 33.6984 15.5518 33.5557 15.0844 33.544L12.0941 33.5687L12.0938 36.7314ZM24.5951 35.7413L21.7322 35.7313L23.1633 33.1953L24.5951 35.7413Z" fill="white"/>
<path fill-rule="evenodd" clip-rule="evenodd" d="M18.3492 41.6987C18.2798 41.6016 18.2252 41.4946 18.1872 41.3814C18.1682 41.3354 18.1612 41.3034 18.1559 41.28C18.1439 41.2247 18.1425 41.219 18.0178 41.1927C17.8028 41.147 16.452 41.1503 15.7969 41.152C15.6486 41.152 15.5359 41.1527 15.4802 41.152L8.82316 41.006C8.70948 41.003 8.67081 41 8.61747 40.996C8.5898 40.994 8.55846 40.9917 8.51079 40.989C8.40745 40.9827 8.2931 40.9807 8.18075 40.979C8.05549 40.9785 7.93028 40.9735 7.80538 40.964C7.60936 40.945 7.40667 40.944 7.20531 40.9433L7.07863 40.9427C7.02263 40.807 6.87661 40.5526 6.7686 40.3639C6.74226 40.3182 6.71826 40.2762 6.69859 40.2409C6.26454 39.4735 5.89983 38.6791 5.62647 37.8653C5.44245 37.3172 5.26843 36.6482 5.21009 36.0278C5.14342 35.3187 5.14975 34.4179 5.25943 33.8392L4.82838 33.9952C4.82105 33.5228 4.97173 32.9678 5.11008 32.5114L6.15586 30.0261C6.22254 29.8981 6.32188 29.7347 6.42356 29.5677C6.57358 29.3204 6.72893 29.065 6.7916 28.903L17.6115 28.6616C17.7588 28.6149 17.9518 28.3183 18.1132 28.0709C18.1899 27.9535 18.2589 27.8475 18.3125 27.7842C19.4293 26.468 20.6328 25.3022 22.085 24.3825L22.5193 24.0851L22.5377 24.0764L22.5554 24.0678L23.9085 23.287L23.9405 23.268L23.9432 23.2664L24.0075 23.2254C24.0939 23.1727 24.1809 23.1233 24.2659 23.079C27.4282 21.4312 31.5737 20.4817 35.6541 20.4844C39.8376 20.487 44.3728 21.4612 47.5778 23.3227C47.7391 23.416 47.8938 23.5034 48.0388 23.5847C48.2722 23.7164 48.4809 23.8338 48.6509 23.9414L51.6309 26.2347C51.6766 26.2804 51.7109 26.311 51.7456 26.3417C51.7766 26.369 51.8076 26.3967 51.8469 26.4354L51.9389 26.5241C51.9883 26.5714 52.0336 26.6144 52.0656 26.6484C52.0936 26.6784 52.1176 26.7074 52.142 26.7374C52.1746 26.7774 52.208 26.8177 52.253 26.8618C52.5803 27.1805 52.743 27.3818 53.0457 27.7562C53.1981 27.9445 53.2911 28.0662 53.4081 28.2262C53.4354 28.2639 53.4644 28.3112 53.4951 28.3609C53.5775 28.4943 53.6708 28.6463 53.7745 28.6793C54.9063 28.6666 56.0407 28.6953 57.1752 28.7243C57.8533 28.7416 58.531 28.7586 59.2078 28.767C60.4832 28.783 63.7729 28.832 64.6 28.9163C64.734 29.1717 64.8717 29.414 65.0091 29.6557C65.2908 30.1515 65.5708 30.6438 65.8145 31.2392C66.0952 31.926 66.5526 33.1355 66.5759 33.9942L66.1602 33.9442C66.5176 36.3345 65.6781 38.6407 64.5143 40.5529L64.4667 40.6283C64.401 40.7313 64.3583 40.7976 64.3357 40.9517C63.8919 40.929 63.4102 40.9563 62.9405 40.9833C62.7348 40.995 62.5318 41.0067 62.3351 41.0133C62.0877 41.0227 61.8467 41.0267 61.5993 41.028L60.6136 41.049C59.6388 41.0737 58.6607 41.0877 57.6829 41.1023C56.2294 41.1233 54.7759 41.1447 53.3321 41.199C53.1721 41.385 53.0337 41.5834 52.8947 41.7824C52.775 41.9534 52.655 42.1251 52.521 42.2898L50.3171 44.5067L49.4017 45.1991C48.4569 45.9242 47.4274 46.4536 46.3557 46.9873C43.4963 48.4118 39.6312 49.2842 35.8618 49.3016C32.5408 49.3172 29.4078 48.7862 26.3858 47.5831L25.5427 47.231C25.4593 47.1983 25.4313 47.183 25.3833 47.157C25.347 47.137 25.3103 47.1176 25.2733 47.099C25.16 47.042 25.0566 46.994 24.9443 46.9416C24.8734 46.9089 24.8028 46.8758 24.7323 46.8423L24.2635 46.6006L24.2292 46.5836L22.3557 45.4542L22.3257 45.4321L22.233 45.3621C22.2216 45.354 22.2102 45.346 22.1986 45.3381C22.1796 45.3251 22.1576 45.3101 22.1373 45.2948L21.8853 45.1261C21.4266 44.8374 20.4611 43.996 20.0641 43.5826L18.8266 42.2085L18.8043 42.1785C18.8009 42.1738 18.7959 42.1685 18.7909 42.1628L18.7809 42.1511L18.3492 41.6987ZM25.2567 23.7054C25.366 23.5954 24.8709 23.7994 24.1539 24.1581C23.5571 24.4565 22.2843 25.2076 21.7193 25.6053C21.7859 25.4909 21.9173 25.3913 22.0336 25.3029C22.0503 25.2896 22.067 25.2772 22.0833 25.2646C23.0854 24.4888 24.1402 23.9591 25.2536 23.3994L25.4303 23.3107C25.7804 23.1653 26.1297 23.017 26.4788 22.8686H26.4795C26.6408 22.7996 26.8028 22.731 26.9645 22.6626C29.0791 21.8559 31.363 21.3745 33.6756 21.2118C33.7856 21.2041 33.9073 21.1985 34.016 21.1941C34.113 21.1898 34.2 21.1861 34.2583 21.1815C34.691 21.1471 36.9733 21.0201 37.2853 21.2781L37.055 21.2768C36.3782 21.2708 34.8354 21.2568 34.6097 21.4185C39.9556 23.5554 35.6058 28.0002 35.3974 28.0192C35.2794 28.0212 34.36 28.0236 33.1092 28.0269H33.1045C30.0942 28.0352 25.1723 28.0482 24.8929 28.0749C24.7573 27.9882 23.9268 25.8366 25.2567 23.7054ZM25.326 29.1093C25.326 29.1093 20.5921 29.1023 18.5702 29.1107L18.8066 28.7393H52.867L52.8941 28.778C52.9731 28.8913 53.0384 28.9853 53.1114 29.1097L34.547 29.1107C33.1635 30.2918 27.3646 32.026 25.326 29.1093ZM34.6927 32.333H27.0502V33.5305H29.9992V37.8646H31.72V33.5305H34.693L34.6927 32.333ZM49.796 32.333H51.6689L51.6649 35.6591C51.6622 37.634 49.4743 38.066 47.9422 38.076C45.5986 38.092 44.2758 37.4399 44.2151 35.6591L44.2194 32.333H46.124L46.1026 35.8718C46.2096 36.1491 46.301 36.2768 46.5067 36.4058C47.2611 36.8792 48.8309 36.7929 49.41 36.4108C49.5967 36.2875 49.796 36.0474 49.796 35.8718V32.333ZM56.1394 32.3407L53.4344 32.333V37.8646H55.1373L55.137 33.5305L58.2683 37.8643H60.8079V32.3404L59.1811 32.3417V36.7362L56.1394 32.3407ZM37.1346 33.8422C37.249 34.2109 39.0515 34.3936 40.046 34.4943C40.3347 34.5236 40.5553 34.5459 40.647 34.5643C42.1119 34.8526 42.8863 35.4127 42.6359 36.8309C42.4406 37.9517 40.5934 38.0253 39.6582 38.0627L39.6052 38.065C37.8004 38.138 36.5886 37.8916 35.9505 37.7623C35.8621 37.744 35.7736 37.7266 35.6848 37.7103V36.4528L35.9708 36.5042C37.3173 36.7469 40.3857 37.3002 41.0131 36.6592C41.9188 35.7341 39.3242 35.5657 38.1677 35.4904C37.9334 35.475 37.758 35.4637 37.683 35.4507C36.4292 35.2324 35.4875 34.893 35.6848 33.3788C36.0135 31.5339 41.1991 32.001 42.2989 32.494L42.2922 33.6762C41.8045 33.5722 36.7886 32.7274 37.1346 33.8419V33.8422ZM10.3203 32.333C10.7154 32.3474 11.5955 32.3417 12.5572 32.3357C14.1134 32.3257 15.8843 32.3147 16.1676 32.3834C16.6087 32.4907 17.2161 32.7184 17.5338 33.0344C18.0915 33.5885 18.1605 34.0519 18.1795 35.038C18.2345 37.891 16.5183 37.8783 14.1778 37.8616C13.8107 37.859 13.4277 37.8563 13.0343 37.8643H10.3903L10.3203 32.333ZM25.6114 37.8643H27.5009L24.2105 32.333H22.0336L18.7533 37.8643H20.5701L21.1929 36.6908L25.059 36.7299L25.6114 37.8643ZM19.4747 41.6314L19.2386 41.26C26.7581 41.2917 33.6009 41.2817 40.6937 41.2717H40.695C44.3788 41.2664 48.1302 41.2607 52.079 41.261C52.0056 41.386 51.9403 41.4797 51.8609 41.5937L51.8346 41.6314H19.4747Z" fill="white"/>
</svg>
