<svg width="71" height="71" viewBox="0 0 71 71" fill="none" xmlns="http://www.w3.org/2000/svg">
<circle cx="35.5" cy="35.5" r="35.5" fill="white"/>
<path fill-rule="evenodd" clip-rule="evenodd" d="M36.2834 46.0309C34.8053 46.3663 33.2616 46.2649 31.8401 45.739C29.3241 44.8685 27.6032 43.1727 26.154 41.1146C25.5451 40.2491 24.9312 38.8352 23.6078 38.5081C21.4139 37.9697 20.5081 39.278 20.4075 41.0241C20.364 42.5796 20.5333 44.1337 20.9107 45.6434C21.1696 46.9409 21.6939 48.1709 22.4505 49.2564C23.0568 49.967 23.8295 50.5167 24.6998 50.8565C27.1755 52.0843 30.6375 52.9096 34.2052 53.1008V58.9983H20.7497C14.2584 58.9983 9 56.3263 9 53.0253V16.9914C9 13.6954 14.2584 11.0234 20.7497 11.0234H34.2756V16.9209C33.5585 16.9688 32.8445 17.0561 32.137 17.1826C28.1467 17.9726 25.0923 19.6231 23.1952 22.3957C22.3428 23.5643 21.7384 24.8948 21.4189 26.3055C20.9191 28.7265 21.2954 31.2463 22.4807 33.4157C23.5238 35.167 24.965 36.6479 26.6874 37.7382C28.4728 38.9147 30.4047 39.8519 32.4339 40.5259C33.5158 40.9033 34.6178 41.2052 35.6342 41.5876C36.5551 41.9399 38.0546 42.4682 38.2408 43.3086C38.6182 44.9993 37.174 45.7793 36.2834 46.0309Z" fill="#ED1C24"/>
<path fill-rule="evenodd" clip-rule="evenodd" d="M62.7476 16.9931V53.0271C62.7476 56.328 57.4842 59 50.9929 59H38.735V52.9616C39.4634 52.8831 40.1873 52.7672 40.9038 52.6144C45.2061 51.6986 48.955 49.6556 50.9124 46.2792C51.6599 45.0421 52.1718 43.6772 52.422 42.2536C52.8178 39.8174 52.4004 37.3187 51.2344 35.1434C50.228 33.4225 48.4367 32.1242 46.6755 31.294C44.4715 30.2272 42.987 29.9102 40.3956 29.1604C39.33 28.8652 38.2817 28.5108 37.2556 28.0987C36.2039 27.6558 35.268 26.9715 35.1824 25.9601C34.951 23.2176 38.579 23.4441 40.3956 23.9473C42.504 24.541 43.5808 25.7538 44.8992 26.9665C45.6037 27.6206 46.4088 28.5415 47.6215 28.8031C49.8708 29.2761 51.486 27.9879 51.8886 26.3123C52.2559 24.7725 51.7024 23.2931 51.2344 22.2867C50.9364 21.6237 50.5794 20.9888 50.1677 20.3897C49.3575 19.2122 48.2253 17.8385 47.0881 17.5466C45.5785 17.1541 44.3457 17.919 42.826 17.8435C42.1846 17.7787 41.55 17.6592 40.929 17.4862C40.3 17.3453 39.5955 17.2095 38.8608 17.0988V11H51.0181C57.4842 11 62.7476 13.672 62.7476 16.9931Z" fill="#ED1C24"/>
</svg>
